<?xml version="1.0" encoding="UTF-8" ?>
<!DOCTYPE svg PUBLIC "-//W3C//DTD SVG 1.1//EN" "http://www.w3.org/Graphics/SVG/1.1/DTD/svg11.dtd">
<svg width="420pt" height="421pt" viewBox="0 0 420 421" version="1.1" xmlns="http://www.w3.org/2000/svg"> 
<path fill="white" d=" M 207.19 21.34 C 209.18 18.97 212.81 20.33 215.54 19.86 C 215.07 22.88 214.93 25.93 214.97 28.98 C 215.13 83.20 214.80 137.42 215.13 191.63 C 231.59 153.05 247.17 114.10 263.42 75.44 C 268.89 61.40 275.27 47.73 280.42 33.56 C 283.30 33.90 285.86 35.17 288.15 36.88 C 276.12 65.11 264.71 93.60 252.87 121.91 C 251.84 124.89 248.96 126.64 247.67 129.43 C 247.08 132.58 247.14 135.87 245.88 138.88 C 239.00 155.72 231.83 172.45 225.09 189.35 C 230.11 184.29 235.39 179.47 240.10 174.11 C 245.25 167.31 252.23 162.18 257.45 155.44 C 262.07 149.77 267.93 145.24 272.55 139.56 C 277.90 132.63 285.03 127.32 290.43 120.43 C 295.20 114.56 301.28 109.91 305.98 103.99 C 310.82 97.86 317.17 93.13 322.00 87.00 C 327.07 80.56 333.82 75.64 338.75 69.08 C 340.57 71.14 342.51 73.08 344.47 75.01 C 339.94 79.64 335.08 83.98 331.10 89.11 C 326.55 94.53 320.94 98.96 316.46 104.45 C 311.40 111.01 304.64 116.02 299.56 122.56 C 294.30 128.94 287.63 134.02 282.55 140.56 C 277.92 146.23 272.08 150.77 267.45 156.44 C 262.39 163.00 255.61 167.99 250.55 174.56 C 244.96 181.57 237.25 186.71 232.46 194.38 C 241.56 191.26 250.01 186.58 258.86 182.84 C 300.04 164.11 341.22 145.38 382.42 126.70 C 383.89 130.93 386.54 134.70 387.36 139.17 C 386.12 137.70 385.02 136.13 383.97 134.54 C 359.84 146.11 335.27 156.73 311.00 167.98 C 282.44 180.90 253.92 193.92 225.37 206.88 C 281.92 207.08 338.47 206.89 395.01 206.99 C 394.98 209.66 394.98 212.33 395.02 215.01 C 346.34 214.98 297.67 215.04 249.00 214.99 C 244.80 214.99 240.61 214.98 236.42 215.19 C 274.09 230.76 311.91 245.97 349.66 261.35 C 359.80 265.66 370.09 269.63 380.33 273.71 C 383.40 274.83 385.41 277.48 387.54 279.81 C 386.34 281.15 385.23 282.56 384.24 284.06 C 331.71 262.82 279.27 241.33 226.72 220.12 C 232.32 225.59 236.99 231.91 242.70 237.29 C 247.43 243.53 253.59 248.46 258.37 254.65 C 261.44 258.22 265.12 261.25 268.00 265.00 C 271.62 269.68 276.38 273.32 280.00 278.00 C 283.33 282.31 287.67 285.69 291.00 290.00 C 294.62 294.68 299.38 298.32 303.00 303.00 C 306.03 306.94 309.93 310.08 313.09 313.89 C 317.56 319.72 323.43 324.28 327.82 330.18 C 332.61 334.92 337.06 339.95 341.38 345.12 C 339.57 346.89 337.78 348.68 336.00 350.47 C 329.61 344.67 324.56 337.63 318.30 331.70 C 313.57 325.47 307.41 320.54 302.64 314.35 C 299.55 310.78 295.88 307.75 293.00 304.00 C 289.38 299.32 284.62 295.68 281.00 291.00 C 277.67 286.69 273.32 283.31 270.00 279.00 C 266.38 274.32 261.62 270.68 258.00 266.00 C 254.67 261.69 250.33 258.31 247.00 254.00 C 243.53 249.50 238.99 245.99 235.45 241.56 C 232.27 237.45 228.49 233.86 224.60 230.43 C 228.65 244.12 234.67 257.13 239.45 270.57 C 253.98 308.48 268.26 346.49 283.06 384.29 C 280.49 385.30 277.97 386.41 275.45 387.54 C 261.12 349.05 246.16 310.79 231.64 272.37 C 226.00 258.09 220.95 243.58 215.02 229.43 C 214.94 285.86 215.08 342.28 214.95 398.71 C 217.05 398.47 219.16 398.29 221.27 398.22 C 216.84 400.04 212.00 400.22 207.29 399.75 C 206.81 383.84 207.09 367.91 207.00 351.99 C 207.00 312.49 207.00 272.98 207.00 233.48 C 185.54 283.93 165.09 334.82 143.92 385.40 C 141.41 385.02 138.63 384.89 136.97 382.69 C 137.12 381.16 137.66 379.71 138.21 378.29 C 158.68 328.47 179.50 278.79 199.81 228.90 C 195.52 233.58 190.42 237.47 186.45 242.44 C 181.08 249.36 173.92 254.64 168.55 261.56 C 163.78 267.42 157.69 272.06 153.00 278.00 C 148.31 283.94 142.22 288.58 137.45 294.44 C 132.08 301.36 124.92 306.64 119.55 313.56 C 115.22 318.86 109.84 323.18 105.36 328.34 C 99.27 336.32 90.96 342.31 85.15 350.54 C 80.86 346.30 76.30 342.34 72.22 337.89 C 74.60 339.90 76.87 342.04 79.11 344.21 C 83.99 339.39 89.15 334.83 93.55 329.55 C 98.93 322.65 106.07 317.36 111.45 310.44 C 116.22 304.58 122.30 299.93 126.99 294.00 C 131.82 287.86 138.16 283.12 143.00 277.00 C 147.69 271.06 153.78 266.42 158.55 260.56 C 163.34 254.40 169.53 249.52 174.64 243.65 C 180.93 235.41 189.58 229.28 195.37 220.62 C 143.11 243.93 91.20 268.01 38.98 291.41 C 37.60 288.94 36.88 286.21 36.68 283.40 C 47.03 279.50 56.84 274.32 67.00 269.97 C 107.08 251.72 147.18 233.48 187.29 215.28 C 132.55 214.60 77.80 215.28 23.06 214.98 C 18.55 215.63 18.55 206.38 23.06 207.02 C 79.89 206.75 136.73 207.29 193.56 206.83 C 184.42 202.64 175.04 199.03 165.71 195.29 C 121.66 177.40 77.68 159.36 33.56 141.65 C 33.04 142.89 32.52 144.12 32.00 145.36 C 32.42 142.06 32.40 138.65 33.42 135.45 C 34.55 133.44 36.17 131.76 37.65 130.02 C 37.52 131.39 37.37 132.76 37.22 134.13 C 47.65 138.76 58.27 142.91 68.86 147.15 C 81.73 152.78 94.99 157.48 107.85 163.13 C 125.50 170.05 142.93 177.50 160.57 184.42 C 172.16 189.18 183.67 194.17 195.49 198.35 C 193.34 195.89 191.03 193.56 189.00 190.99 C 185.67 186.69 181.32 183.31 178.00 179.00 C 174.38 174.32 169.62 170.68 166.00 166.00 C 162.67 161.69 158.33 158.31 155.00 154.00 C 151.38 149.32 146.62 145.68 143.00 141.00 C 139.67 136.69 135.33 133.31 132.00 129.00 C 128.53 124.51 124.00 120.99 120.45 116.56 C 116.54 111.50 111.45 107.50 107.64 102.35 C 103.13 97.52 98.33 92.97 94.23 87.77 C 89.38 83.36 85.52 78.06 80.96 73.39 C 82.87 71.62 84.75 69.81 86.55 67.92 C 90.61 72.06 94.70 76.16 98.30 80.71 C 104.75 86.96 110.19 94.11 116.70 100.29 C 121.16 106.14 126.87 110.84 131.36 116.65 C 134.75 120.58 138.82 123.88 142.00 128.00 C 145.33 132.30 149.67 135.69 153.00 140.00 C 156.62 144.68 161.38 148.32 165.00 153.00 C 168.33 157.31 172.67 160.69 176.00 165.00 C 179.47 169.50 184.00 173.01 187.55 177.44 C 191.41 182.44 196.35 186.45 200.37 191.32 C 197.94 183.17 194.39 175.43 191.55 167.44 C 176.29 127.38 160.96 87.34 145.69 47.29 C 143.76 42.60 142.09 37.83 140.48 33.03 C 142.83 31.88 145.29 30.98 147.88 30.52 C 162.87 70.30 178.18 109.98 193.30 149.72 C 197.90 161.33 202.00 173.14 206.80 184.67 C 207.26 135.45 206.87 86.22 207.00 37.00 C 207.11 31.78 206.67 26.54 207.19 21.34 Z" />
</svg>
