<?xml version="1.0" encoding="UTF-8" ?>
<!DOCTYPE svg PUBLIC "-//W3C//DTD SVG 1.1//EN" "http://www.w3.org/Graphics/SVG/1.1/DTD/svg11.dtd">
<svg width="310pt" height="310pt" viewBox="0 0 310 310" version="1.1" xmlns="http://www.w3.org/2000/svg">   
<path fill="#fdfefd" d=" M 102.65 90.74 C 105.10 87.69 109.53 88.76 112.94 88.67 C 121.52 89.45 130.60 89.04 138.50 93.01 C 137.65 94.28 137.26 96.13 135.65 96.69 C 131.66 98.08 127.35 98.02 123.21 98.61 C 124.28 103.28 125.53 107.91 126.94 112.50 C 146.96 110.97 167.01 109.88 187.02 108.11 C 193.63 107.39 200.30 107.60 206.89 106.69 C 206.20 103.15 205.13 99.67 204.77 96.07 C 205.48 93.86 208.14 94.27 209.94 93.86 C 217.90 93.13 226.15 93.03 233.86 95.47 C 237.98 96.74 241.97 100.40 241.65 105.03 C 241.26 111.07 237.01 115.88 233.20 120.23 C 231.59 121.80 229.97 124.35 227.35 123.59 C 226.83 122.72 225.39 121.43 226.44 120.46 C 230.52 114.98 237.17 110.35 236.77 102.71 C 229.21 96.86 219.11 98.73 210.24 98.63 C 212.44 110.22 214.94 121.76 217.35 133.32 C 233.59 130.72 250.88 136.90 261.99 148.98 C 277.38 165.07 279.61 191.75 267.21 210.21 C 258.90 223.13 244.36 231.87 229.01 232.88 C 216.21 234.03 203.10 229.92 193.18 221.80 C 182.62 213.36 175.92 200.45 174.70 187.03 C 173.75 175.84 176.90 164.42 183.07 155.08 C 189.87 144.89 200.53 137.51 212.35 134.38 C 211.88 131.92 211.44 129.45 211.03 126.99 C 192.09 143.32 173.43 159.99 154.70 176.57 C 156.79 181.11 156.90 186.65 153.57 190.64 C 151.39 194.33 147.08 195.25 143.32 196.43 C 142.35 199.74 142.05 203.21 141.45 206.60 C 143.71 206.83 145.97 207.08 148.23 207.35 C 148.61 208.08 149.35 209.56 149.72 210.29 C 148.63 211.38 147.90 213.33 146.07 213.27 C 141.02 213.49 135.91 213.63 130.87 213.15 C 128.68 212.81 128.23 210.72 128.53 208.83 C 130.38 206.01 134.22 207.01 137.06 206.64 C 137.83 202.71 138.55 198.77 138.78 194.78 C 136.93 194.69 135.07 194.61 133.21 194.53 C 130.03 209.38 119.14 222.09 105.45 228.40 C 94.02 233.85 80.49 234.46 68.49 230.55 C 54.61 226.00 43.04 215.08 37.59 201.54 C 32.33 188.16 32.97 172.47 39.76 159.75 C 46.58 146.58 59.53 136.83 74.06 133.90 C 85.47 131.06 97.53 133.55 107.96 138.55 C 112.53 130.59 117.76 122.97 121.85 114.77 C 121.46 109.42 119.38 104.34 118.19 99.12 C 114.79 99.50 111.40 100.46 107.95 100.26 C 104.12 99.08 101.23 94.71 102.65 90.74 Z" />
<path fill="#8fca81" d=" M 128.05 117.40 C 154.53 115.29 181.07 113.80 207.54 111.50 C 208.33 114.72 209.11 117.95 209.89 121.17 C 190.47 138.47 170.82 155.52 151.43 172.87 C 150.14 172.03 148.84 171.20 147.54 170.38 C 148.20 166.46 148.75 162.52 149.40 158.60 C 151.87 158.42 154.55 158.97 156.90 158.01 C 158.83 156.70 157.79 154.25 157.56 152.40 C 150.93 152.56 143.97 151.06 137.59 153.37 C 134.55 141.34 131.40 129.35 128.05 117.40 Z" />
<path fill="#8fca81" d=" M 112.25 141.11 C 116.17 134.50 120.09 127.89 124.07 121.32 C 128.31 137.78 133.02 154.11 136.98 170.63 C 135.69 170.70 134.39 170.76 133.10 170.83 C 130.36 158.66 122.35 148.21 112.25 141.11 Z" />
<path fill="#8fca81" d=" M 45.13 160.28 C 52.12 148.10 65.06 139.68 78.98 138.04 C 88.06 136.76 97.21 139.03 105.46 142.74 C 99.42 152.94 93.30 163.10 87.28 173.31 C 85.68 176.90 80.58 176.52 79.00 180.11 C 77.42 183.41 79.55 187.76 83.06 188.64 C 98.27 190.17 113.50 191.76 128.64 193.94 C 124.81 207.29 115.16 219.00 102.26 224.41 C 91.98 229.04 79.91 229.52 69.33 225.58 C 56.91 221.33 46.65 211.33 41.96 199.08 C 37.07 186.55 38.23 171.84 45.13 160.28 Z" />
<path fill="#8fca81" d=" M 218.32 138.18 C 228.71 136.68 239.58 138.87 248.54 144.35 C 261.59 152.09 270.16 166.83 270.39 182.01 C 270.72 194.00 265.84 205.95 257.46 214.50 C 249.52 222.70 238.37 227.62 226.99 228.21 C 212.35 228.88 197.58 221.93 188.78 210.19 C 180.77 199.75 177.62 185.62 180.80 172.81 C 184.15 156.56 197.57 143.33 213.48 139.15 C 216.07 152.50 219.07 165.78 221.58 179.15 C 222.07 181.33 222.36 183.70 223.89 185.46 C 225.34 185.61 226.54 185.13 227.49 184.04 C 227.36 179.57 225.76 175.33 224.95 170.97 C 222.95 160.00 220.41 149.13 218.32 138.18 Z" />
<path fill="#8fca81" d=" M 91.28 176.14 C 97.53 165.89 103.54 155.51 109.80 145.27 C 113.58 148.44 117.47 151.59 120.46 155.56 C 124.20 160.29 126.53 165.93 128.59 171.54 C 116.24 173.75 103.66 174.16 91.28 176.14 Z" />
<path fill="#8fca81" d=" M 139.05 158.40 C 141.02 158.47 142.99 158.55 144.97 158.61 C 144.47 162.64 143.93 166.68 142.84 170.60 C 140.86 166.78 140.10 162.52 139.05 158.40 Z" />
 
<path fill="#8fca81" d=" M 106.03 176.73 C 113.73 175.91 121.35 174.20 129.13 174.26 C 129.26 176.37 129.40 178.48 129.55 180.59 C 119.03 180.55 108.50 180.52 97.97 180.60 C 95.10 180.56 91.85 181.11 89.64 178.78 C 95.04 177.62 100.57 177.44 106.03 176.73 Z" />
<path fill="#8fca81" d=" M 147.43 174.35 C 149.03 174.33 148.49 176.77 147.14 176.73 C 145.56 176.76 146.10 174.29 147.43 174.35 Z" />
<path fill="#8fca81" d=" M 134.11 180.47 C 134.97 178.08 136.33 175.95 138.08 174.13 C 138.68 176.27 139.26 178.42 139.83 180.57 C 137.92 180.55 136.01 180.51 134.11 180.47 Z" />
<path fill="#8fca81" d=" M 152.17 178.92 C 152.36 181.75 153.15 184.90 151.41 187.42 C 149.93 190.28 146.91 191.63 144.06 192.73 C 144.36 190.22 144.23 187.56 145.20 185.18 C 147.08 182.66 149.77 180.91 152.17 178.92 Z" />
<path fill="#8fca81" d=" M 89.80 186.85 C 91.13 185.26 93.19 185.40 95.02 185.38 C 106.54 185.45 118.05 185.43 129.56 185.40 C 129.40 187.45 129.25 189.51 129.12 191.56 C 115.98 190.22 102.91 188.37 89.80 186.85 Z" />
<path fill="#8fca81" d=" M 134.11 185.51 C 136.31 185.45 138.52 185.43 140.73 185.41 C 140.28 187.69 139.82 189.96 139.33 192.23 C 136.92 190.56 134.90 188.41 134.11 185.51 Z" />
</svg>
