<?xml version="1.0" encoding="UTF-8" ?>
<!DOCTYPE svg PUBLIC "-//W3C//DTD SVG 1.1//EN" "http://www.w3.org/Graphics/SVG/1.1/DTD/svg11.dtd">
<svg width="310pt" height="310pt" viewBox="0 0 310 310" version="1.1" xmlns="http://www.w3.org/2000/svg">  
<path fill="#ffffff" d=" M 134.98 110.07 C 137.46 108.08 141.05 109.32 144.00 108.98 C 171.02 109.02 198.04 109.03 225.06 108.97 C 226.52 109.11 228.16 108.78 229.47 109.59 C 240.54 118.49 251.71 127.27 262.86 136.08 C 266.79 139.40 271.64 142.04 274.43 146.45 C 275.05 155.95 274.82 165.53 274.94 175.07 C 275.15 177.89 274.33 181.24 271.43 182.38 C 267.77 183.23 263.98 182.79 260.27 182.72 C 259.94 179.29 260.26 175.60 258.53 172.48 C 256.33 168.27 253.43 164.15 249.05 162.00 C 243.33 159.36 236.64 158.40 230.56 160.42 C 223.94 161.82 218.73 167.11 216.36 173.29 C 215.67 176.38 215.39 179.54 214.84 182.65 C 183.90 182.95 152.95 182.69 122.00 182.78 C 114.11 182.67 106.22 182.99 98.34 182.66 C 97.15 174.99 94.25 166.87 87.23 162.69 C 77.23 157.11 62.31 158.62 55.63 168.63 C 52.93 172.79 52.24 177.83 51.39 182.62 C 47.33 182.86 43.24 183.11 39.20 182.58 C 36.51 182.34 34.95 179.56 35.05 177.06 C 34.91 170.69 35.03 164.30 35.00 157.93 C 35.13 156.16 34.82 153.56 36.99 152.92 C 44.00 150.34 51.52 149.42 58.93 148.69 C 63.97 148.00 68.86 146.37 73.97 146.08 C 82.49 145.71 90.53 142.34 99.05 141.98 C 100.87 141.71 103.05 141.89 104.41 140.41 C 114.78 130.48 124.60 119.99 134.98 110.07 Z" />
<path fill="#8fca81" d=" M 135.16 120.16 C 137.22 118.07 140.36 118.75 142.99 118.59 C 154.35 118.84 165.73 118.34 177.08 118.83 C 177.34 127.85 177.37 136.88 177.07 145.89 C 158.71 146.15 140.35 145.82 122.00 146.02 C 119.06 146.09 116.13 145.94 113.21 145.60 C 111.93 141.75 115.55 139.24 117.90 136.88 C 123.85 131.51 129.15 125.46 135.16 120.16 Z" />
<path fill="#8fca81" d=" M 185.13 118.84 C 196.35 118.55 207.63 118.39 218.83 118.89 C 223.55 122.11 227.16 126.75 231.34 130.64 C 235.46 135.46 241.52 139.18 243.05 145.71 C 231.38 146.32 219.68 145.79 208.00 145.97 C 200.39 145.86 192.77 146.20 185.16 145.84 C 184.98 136.84 185.02 127.84 185.13 118.84 Z" />
<path fill="#ffffff" d=" M 68.31 164.33 C 73.66 163.66 79.98 162.80 84.51 166.44 C 90.38 170.44 94.40 177.82 93.20 185.01 C 92.00 190.34 89.00 195.49 84.13 198.24 C 79.72 201.51 73.72 201.70 68.59 200.33 C 63.47 197.90 58.06 194.14 56.74 188.27 C 54.95 182.01 55.67 174.29 60.66 169.67 C 62.88 167.50 65.35 165.40 68.31 164.33 Z" />
<path fill="#ffffff" d=" M 231.33 164.39 C 237.17 163.39 244.06 162.95 248.81 167.20 C 259.14 174.07 258.69 191.70 247.86 197.89 C 238.85 204.86 224.35 200.02 220.39 189.63 C 218.97 184.98 218.90 179.90 220.29 175.23 C 222.06 170.16 226.44 166.36 231.33 164.39 Z" /> 		
<path fill="#8fca81" d=" M 70.37 175.32 C 73.75 174.42 78.52 173.91 80.50 177.52 C 85.58 182.41 79.49 191.57 73.08 190.01 C 66.16 189.25 64.66 178.60 70.37 175.32 Z" />
<path fill="#8fca81" d=" M 233.45 175.45 C 236.76 174.43 241.64 173.86 243.70 177.36 C 247.61 182.27 243.64 191.06 237.03 190.09 C 229.91 190.08 227.76 179.03 233.45 175.45 Z" />
</svg>
