<?xml version="1.0" encoding="UTF-8" ?>
<!DOCTYPE svg PUBLIC "-//W3C//DTD SVG 1.1//EN" "http://www.w3.org/Graphics/SVG/1.1/DTD/svg11.dtd">
<svg width="310pt" height="310pt" viewBox="0 0 310 310" version="1.1" xmlns="http://www.w3.org/2000/svg"> 
<path fill="#ffffff" d=" M 151.66 55.44 C 153.30 46.78 162.52 41.28 170.99 42.54 C 178.89 43.33 185.72 49.65 187.51 57.33 C 189.47 64.58 185.96 72.72 179.52 76.52 C 177.92 77.93 174.28 79.14 175.72 81.85 C 177.16 83.54 178.96 84.87 180.63 86.34 C 186.27 91.17 190.77 97.25 194.08 103.89 C 197.59 110.59 199.20 118.17 203.47 124.51 C 209.22 134.03 218.66 140.55 228.49 145.32 C 230.95 146.31 233.46 144.22 235.94 144.86 C 238.59 145.65 237.77 148.89 237.89 150.96 C 237.62 154.17 237.63 157.89 235.35 160.42 C 233.57 161.26 231.56 160.55 229.74 160.24 C 222.57 158.38 215.17 157.00 208.55 153.52 C 195.80 147.32 185.82 136.70 178.14 124.97 C 174.33 134.07 173.02 144.29 175.05 153.98 C 176.55 160.73 178.88 167.28 181.36 173.72 C 184.58 182.14 189.46 189.77 192.99 198.05 C 200.40 214.41 204.02 232.16 205.80 249.95 C 213.68 250.96 221.70 251.19 229.42 253.22 C 228.35 254.80 227.49 256.73 225.61 257.50 C 215.59 262.24 205.35 266.50 195.26 271.10 C 187.93 251.95 181.17 232.58 173.28 213.65 C 168.91 202.91 162.83 193.00 156.91 183.06 C 154.69 179.30 151.46 176.31 148.46 173.20 C 143.73 180.41 140.34 188.40 135.40 195.48 C 127.68 207.42 117.64 217.59 107.35 227.32 C 103.67 231.30 99.31 234.69 96.07 239.05 C 96.76 243.73 98.20 248.28 99.29 252.88 C 99.83 256.30 103.10 258.04 105.29 260.34 C 102.33 262.27 98.89 260.70 95.73 260.33 C 92.84 259.61 89.52 259.73 86.98 258.06 C 84.21 254.28 82.55 249.82 80.29 245.74 C 78.63 242.17 76.31 238.87 75.22 235.06 C 75.23 233.00 77.31 231.90 78.55 230.55 C 99.83 211.54 113.99 186.11 125.24 160.24 C 127.83 154.53 127.91 148.17 128.53 142.04 C 129.08 133.71 129.82 125.38 129.88 117.03 C 121.39 124.33 116.04 135.02 114.04 145.96 C 112.97 150.39 115.02 154.67 115.42 159.04 C 115.86 162.50 112.51 165.96 109.01 165.46 C 103.12 164.81 97.00 161.60 94.54 155.97 C 94.21 152.42 98.86 150.74 98.54 147.08 C 99.28 135.26 103.28 123.94 108.27 113.30 C 113.00 103.32 119.70 94.33 127.61 86.64 C 133.81 80.51 142.20 76.78 150.91 76.31 C 152.72 75.81 155.73 76.47 156.35 74.12 C 153.53 68.33 149.75 62.17 151.66 55.44 Z" />
</svg>
